<svg xmlns="http://www.w3.org/2000/svg" xmlns:xlink="http://www.w3.org/1999/xlink" viewBox="0 0 200 200"><defs><style>.cls-1{fill:url(#Безымянный_градиент_12);}.cls-2{fill:#fcfcfc;}.cls-3{fill:none;}.cls-4{fill:url(#Безымянный_градиент_52);}.cls-5{fill:url(#Безымянный_градиент_62);}</style><linearGradient id="Безымянный_градиент_12" x1="160.9841" y1="205.62756" x2="39.0159" y2="-5.62756" gradientUnits="userSpaceOnUse"><stop offset="0.05417" stop-color="#3fe6ff" stop-opacity="0.8"/><stop offset="0.07036" stop-color="#3de0fc" stop-opacity="0.80711"/><stop offset="0.20452" stop-color="#31b5ea" stop-opacity="0.85801"/><stop offset="0.32313" stop-color="#2a9ade" stop-opacity="0.88905"/><stop offset="0.41302" stop-color="#2791da" stop-opacity="0.9"/><stop offset="0.51227" stop-color="#3284de" stop-opacity="0.9105"/><stop offset="0.68936" stop-color="#4f61e8" stop-opacity="0.93846"/><stop offset="0.92221" stop-color="#7e29f9" stop-opacity="0.9835"/><stop offset="1" stop-color="#8f15ff"/></linearGradient><linearGradient id="Безымянный_градиент_52" x1="76.36667" y1="129" x2="76.36667" y2="62" gradientUnits="userSpaceOnUse"><stop offset="0" stop-color="#33ebff"/><stop offset="0.04924" stop-color="#2fdefa"/><stop offset="0.16319" stop-color="#27c5f1"/><stop offset="0.29184" stop-color="#21b2ea"/><stop offset="0.4417" stop-color="#1ca5e5"/><stop offset="0.63227" stop-color="#1a9de2"/><stop offset="1" stop-color="#199be1"/></linearGradient><linearGradient id="Безымянный_градиент_62" x1="124.94615" y1="129.00376" x2="124.94615" y2="62" gradientUnits="userSpaceOnUse"><stop offset="0" stop-color="#33eafe"/><stop offset="0.04016" stop-color="#30e0fb"/><stop offset="0.17306" stop-color="#28c6f1"/><stop offset="0.31919" stop-color="#21b2ea"/><stop offset="0.4835" stop-color="#1da3e5"/><stop offset="0.6809" stop-color="#1a9be2"/><stop offset="1" stop-color="#1998e1"/></linearGradient></defs><title>SVGLOGO</title><g id="Слой_1" data-name="Слой 1"><rect class="cls-1" width="200" height="200" rx="40"/><circle class="cls-2" cx="100" cy="100" r="79"/><line class="cls-3" x1="116" y1="90" x2="133" y2="90"/></g><g id="Слой_3" data-name="Слой 3"><text/><polyline class="cls-4" points="92 74.283 92 62 60.733 62 60.733 129 73.017 129 73.017 95.5 73.017 74.283 92 74.283"/></g><g id="Слой_5" data-name="Слой 5"><path class="cls-3" d="M152,109" transform="translate(0 0)"/><path class="cls-5" d="M97,81a23.88213,23.88213,0,0,1,2-9c3-6,7-8,10-9a32.16669,32.16669,0,0,1,8-1V73a9.63524,9.63524,0,0,0-4,1,7.46712,7.46712,0,0,0-3,3,10.27278,10.27278,0,0,0-1,5c0,3,2.70269,5.709,3,6a8.52318,8.52318,0,0,0,6,2h13c6,0,10.721,1.473,14,4a24.57154,24.57154,0,0,1,6,7c3,6,1.70711,12.87868,1,15-2,6-5,8-8,10a18.34067,18.34067,0,0,1-10,3V118a12.73714,12.73714,0,0,0,5-2c2.0688-1.5695,3-4.46834,3-7a7.7562,7.7562,0,0,0-3-6,10.66662,10.66662,0,0,0-6-2H117c-4.67068,0-7.11645-.43327-10-2a19.42333,19.42333,0,0,1-8-9A18.33811,18.33811,0,0,1,97,81Z" transform="translate(0 0)"/></g></svg>